<svg xmlns="http://www.w3.org/2000/svg" fill="none" viewBox="0 0 24 24" stroke-width="1.5" stroke="#94a3b8">
    <path stroke-linecap="round" stroke-linejoin="round" d="M21.75 9v.906a2.25 2.25 0 01-1.183 1.981l-6.478 3.488M2.25 9v.906a2.25 2.25 0 001.183 1.981l6.478 3.488m8.839 2.51l-4.66-2.51m0 0l-1.023-.55a2.25 2.25 0 00-2.134 0l-1.022.55m0 0l-4.661 2.51m16.5 1.615a2.25 2.25 0 01-2.25 2.25h-15a2.25 2.25 0 01-2.25-2.25V8.844c0-1.165.734-2.186 1.82-2.551l7.115-2.39a2.25 2.25 0 011.512 0l7.115 2.39c1.085.365 1.82 1.386 1.82 2.551V21h-2.25z" />
</svg>
